<mxfile host="app.diagrams.net" modified="2024-07-22T10:14:44.603Z" agent="Mozilla/5.0 (Windows NT 10.0; Win64; x64) AppleWebKit/537.36 (KHTML, like Gecko) Chrome/126.0.0.0 Safari/537.36" etag="qlmiVZtMgB9vKePjH8C1" version="24.7.1" type="device">
  <diagram id="C5RBs43oDa-KdzZeNtuy" name="Page-1">
    <mxGraphModel dx="1123" dy="1097" grid="1" gridSize="10" guides="1" tooltips="1" connect="1" arrows="1" fold="1" page="1" pageScale="1" pageWidth="827" pageHeight="1169" math="0" shadow="0">
      <root>
        <mxCell id="WIyWlLk6GJQsqaUBKTNV-0" />
        <mxCell id="WIyWlLk6GJQsqaUBKTNV-1" parent="WIyWlLk6GJQsqaUBKTNV-0" />
        <mxCell id="bI1iVkS6anckWxS1NDID-5" style="edgeStyle=orthogonalEdgeStyle;rounded=0;orthogonalLoop=1;jettySize=auto;html=1;exitX=0.5;exitY=1;exitDx=0;exitDy=0;entryX=0.5;entryY=0;entryDx=0;entryDy=0;" edge="1" parent="WIyWlLk6GJQsqaUBKTNV-1" source="bI1iVkS6anckWxS1NDID-2" target="bI1iVkS6anckWxS1NDID-27">
          <mxGeometry relative="1" as="geometry">
            <mxPoint x="260" y="300" as="targetPoint" />
          </mxGeometry>
        </mxCell>
        <mxCell id="bI1iVkS6anckWxS1NDID-6" value="Yes" style="edgeLabel;html=1;align=center;verticalAlign=middle;resizable=0;points=[];" vertex="1" connectable="0" parent="bI1iVkS6anckWxS1NDID-5">
          <mxGeometry x="-0.2" y="2" relative="1" as="geometry">
            <mxPoint x="12" as="offset" />
          </mxGeometry>
        </mxCell>
        <mxCell id="bI1iVkS6anckWxS1NDID-9" style="edgeStyle=orthogonalEdgeStyle;rounded=0;orthogonalLoop=1;jettySize=auto;html=1;exitX=1;exitY=0.5;exitDx=0;exitDy=0;entryX=0;entryY=0.5;entryDx=0;entryDy=0;" edge="1" parent="WIyWlLk6GJQsqaUBKTNV-1" source="bI1iVkS6anckWxS1NDID-2" target="bI1iVkS6anckWxS1NDID-8">
          <mxGeometry relative="1" as="geometry" />
        </mxCell>
        <mxCell id="bI1iVkS6anckWxS1NDID-13" value="No" style="edgeLabel;html=1;align=center;verticalAlign=middle;resizable=0;points=[];" vertex="1" connectable="0" parent="bI1iVkS6anckWxS1NDID-9">
          <mxGeometry x="0.1143" y="-1" relative="1" as="geometry">
            <mxPoint x="-9" y="9" as="offset" />
          </mxGeometry>
        </mxCell>
        <mxCell id="bI1iVkS6anckWxS1NDID-2" value="Exists in the database ?" style="rhombus;whiteSpace=wrap;html=1;shadow=0;fontFamily=Helvetica;fontSize=12;align=center;strokeWidth=1;spacing=6;spacingTop=-4;" vertex="1" parent="WIyWlLk6GJQsqaUBKTNV-1">
          <mxGeometry x="210" y="160" width="100" height="100" as="geometry" />
        </mxCell>
        <mxCell id="bI1iVkS6anckWxS1NDID-7" style="edgeStyle=orthogonalEdgeStyle;rounded=0;orthogonalLoop=1;jettySize=auto;html=1;exitX=0.5;exitY=1;exitDx=0;exitDy=0;entryX=0.5;entryY=0;entryDx=0;entryDy=0;" edge="1" parent="WIyWlLk6GJQsqaUBKTNV-1" source="bI1iVkS6anckWxS1NDID-3" target="bI1iVkS6anckWxS1NDID-2">
          <mxGeometry relative="1" as="geometry" />
        </mxCell>
        <mxCell id="bI1iVkS6anckWxS1NDID-3" value="A Subtree is asked" style="ellipse;whiteSpace=wrap;html=1;" vertex="1" parent="WIyWlLk6GJQsqaUBKTNV-1">
          <mxGeometry x="200" y="50" width="120" height="80" as="geometry" />
        </mxCell>
        <mxCell id="bI1iVkS6anckWxS1NDID-11" style="edgeStyle=orthogonalEdgeStyle;rounded=0;orthogonalLoop=1;jettySize=auto;html=1;exitX=0.5;exitY=1;exitDx=0;exitDy=0;" edge="1" parent="WIyWlLk6GJQsqaUBKTNV-1" source="bI1iVkS6anckWxS1NDID-8" target="bI1iVkS6anckWxS1NDID-10">
          <mxGeometry relative="1" as="geometry" />
        </mxCell>
        <mxCell id="bI1iVkS6anckWxS1NDID-14" value="Yes" style="edgeLabel;html=1;align=center;verticalAlign=middle;resizable=0;points=[];" vertex="1" connectable="0" parent="bI1iVkS6anckWxS1NDID-11">
          <mxGeometry x="-0.4" relative="1" as="geometry">
            <mxPoint x="10" y="5" as="offset" />
          </mxGeometry>
        </mxCell>
        <mxCell id="bI1iVkS6anckWxS1NDID-19" style="edgeStyle=orthogonalEdgeStyle;rounded=0;orthogonalLoop=1;jettySize=auto;html=1;exitX=1;exitY=0.5;exitDx=0;exitDy=0;entryX=0;entryY=0.5;entryDx=0;entryDy=0;" edge="1" parent="WIyWlLk6GJQsqaUBKTNV-1" source="bI1iVkS6anckWxS1NDID-8" target="bI1iVkS6anckWxS1NDID-16">
          <mxGeometry relative="1" as="geometry" />
        </mxCell>
        <mxCell id="bI1iVkS6anckWxS1NDID-24" value="No" style="edgeLabel;html=1;align=center;verticalAlign=middle;resizable=0;points=[];" vertex="1" connectable="0" parent="bI1iVkS6anckWxS1NDID-19">
          <mxGeometry x="0.2571" y="-2" relative="1" as="geometry">
            <mxPoint x="-14" y="8" as="offset" />
          </mxGeometry>
        </mxCell>
        <mxCell id="bI1iVkS6anckWxS1NDID-8" value="Is the requested Subtree max rank ?" style="rhombus;whiteSpace=wrap;html=1;shadow=0;fontFamily=Helvetica;fontSize=12;align=center;strokeWidth=1;spacing=6;spacingTop=-4;" vertex="1" parent="WIyWlLk6GJQsqaUBKTNV-1">
          <mxGeometry x="370" y="160" width="140" height="100" as="geometry" />
        </mxCell>
        <mxCell id="bI1iVkS6anckWxS1NDID-29" style="edgeStyle=orthogonalEdgeStyle;rounded=0;orthogonalLoop=1;jettySize=auto;html=1;exitX=0;exitY=0.5;exitDx=0;exitDy=0;entryX=1;entryY=0.5;entryDx=0;entryDy=0;" edge="1" parent="WIyWlLk6GJQsqaUBKTNV-1" source="bI1iVkS6anckWxS1NDID-10" target="bI1iVkS6anckWxS1NDID-27">
          <mxGeometry relative="1" as="geometry" />
        </mxCell>
        <mxCell id="bI1iVkS6anckWxS1NDID-10" value="Create a BitSet from all the leaf tiles and generate all the Availabilities from it" style="rounded=0;whiteSpace=wrap;html=1;" vertex="1" parent="WIyWlLk6GJQsqaUBKTNV-1">
          <mxGeometry x="380" y="310" width="120" height="60" as="geometry" />
        </mxCell>
        <mxCell id="bI1iVkS6anckWxS1NDID-18" style="edgeStyle=orthogonalEdgeStyle;rounded=0;orthogonalLoop=1;jettySize=auto;html=1;exitX=0.5;exitY=0;exitDx=0;exitDy=0;entryX=0;entryY=0.5;entryDx=0;entryDy=0;" edge="1" parent="WIyWlLk6GJQsqaUBKTNV-1" source="bI1iVkS6anckWxS1NDID-16" target="bI1iVkS6anckWxS1NDID-2">
          <mxGeometry relative="1" as="geometry">
            <Array as="points">
              <mxPoint x="620" y="30" />
              <mxPoint x="170" y="30" />
              <mxPoint x="170" y="210" />
            </Array>
          </mxGeometry>
        </mxCell>
        <mxCell id="bI1iVkS6anckWxS1NDID-20" value="Get children Subtrees" style="edgeLabel;html=1;align=center;verticalAlign=middle;resizable=0;points=[];" vertex="1" connectable="0" parent="bI1iVkS6anckWxS1NDID-18">
          <mxGeometry x="-0.8439" y="-2" relative="1" as="geometry">
            <mxPoint x="-62" y="4" as="offset" />
          </mxGeometry>
        </mxCell>
        <mxCell id="bI1iVkS6anckWxS1NDID-22" style="edgeStyle=orthogonalEdgeStyle;rounded=0;orthogonalLoop=1;jettySize=auto;html=1;exitX=0.5;exitY=1;exitDx=0;exitDy=0;entryX=0.5;entryY=0;entryDx=0;entryDy=0;" edge="1" parent="WIyWlLk6GJQsqaUBKTNV-1" source="bI1iVkS6anckWxS1NDID-16" target="bI1iVkS6anckWxS1NDID-21">
          <mxGeometry relative="1" as="geometry" />
        </mxCell>
        <mxCell id="bI1iVkS6anckWxS1NDID-23" value="Then" style="edgeLabel;html=1;align=center;verticalAlign=middle;resizable=0;points=[];" vertex="1" connectable="0" parent="bI1iVkS6anckWxS1NDID-22">
          <mxGeometry x="0.1" y="-4" relative="1" as="geometry">
            <mxPoint x="-16" y="-3" as="offset" />
          </mxGeometry>
        </mxCell>
        <mxCell id="bI1iVkS6anckWxS1NDID-16" value="Get all children Subtrees" style="rhombus;whiteSpace=wrap;html=1;" vertex="1" parent="WIyWlLk6GJQsqaUBKTNV-1">
          <mxGeometry x="580" y="170" width="80" height="80" as="geometry" />
        </mxCell>
        <mxCell id="bI1iVkS6anckWxS1NDID-30" style="edgeStyle=orthogonalEdgeStyle;rounded=0;orthogonalLoop=1;jettySize=auto;html=1;exitX=0.5;exitY=1;exitDx=0;exitDy=0;entryX=0.5;entryY=1;entryDx=0;entryDy=0;" edge="1" parent="WIyWlLk6GJQsqaUBKTNV-1" source="bI1iVkS6anckWxS1NDID-21" target="bI1iVkS6anckWxS1NDID-27">
          <mxGeometry relative="1" as="geometry" />
        </mxCell>
        <mxCell id="bI1iVkS6anckWxS1NDID-21" value="Concatenate all the Subtrees" style="rounded=0;whiteSpace=wrap;html=1;" vertex="1" parent="WIyWlLk6GJQsqaUBKTNV-1">
          <mxGeometry x="560" y="310" width="120" height="60" as="geometry" />
        </mxCell>
        <mxCell id="bI1iVkS6anckWxS1NDID-26" value="Return the Subtree" style="ellipse;whiteSpace=wrap;html=1;" vertex="1" parent="WIyWlLk6GJQsqaUBKTNV-1">
          <mxGeometry x="60" y="390" width="120" height="80" as="geometry" />
        </mxCell>
        <mxCell id="bI1iVkS6anckWxS1NDID-32" style="edgeStyle=orthogonalEdgeStyle;rounded=0;orthogonalLoop=1;jettySize=auto;html=1;exitX=0;exitY=0.5;exitDx=0;exitDy=0;entryX=1;entryY=0.5;entryDx=0;entryDy=0;" edge="1" parent="WIyWlLk6GJQsqaUBKTNV-1" source="bI1iVkS6anckWxS1NDID-27" target="bI1iVkS6anckWxS1NDID-31">
          <mxGeometry relative="1" as="geometry" />
        </mxCell>
        <mxCell id="bI1iVkS6anckWxS1NDID-27" value="Convert the Subtree into JSON binary" style="rounded=0;whiteSpace=wrap;html=1;" vertex="1" parent="WIyWlLk6GJQsqaUBKTNV-1">
          <mxGeometry x="200" y="310" width="120" height="60" as="geometry" />
        </mxCell>
        <mxCell id="bI1iVkS6anckWxS1NDID-33" style="edgeStyle=orthogonalEdgeStyle;rounded=0;orthogonalLoop=1;jettySize=auto;html=1;exitX=0.5;exitY=1;exitDx=0;exitDy=0;" edge="1" parent="WIyWlLk6GJQsqaUBKTNV-1" source="bI1iVkS6anckWxS1NDID-31" target="bI1iVkS6anckWxS1NDID-26">
          <mxGeometry relative="1" as="geometry" />
        </mxCell>
        <mxCell id="bI1iVkS6anckWxS1NDID-31" value="Update the Database" style="rounded=0;whiteSpace=wrap;html=1;" vertex="1" parent="WIyWlLk6GJQsqaUBKTNV-1">
          <mxGeometry x="60" y="310" width="120" height="60" as="geometry" />
        </mxCell>
      </root>
    </mxGraphModel>
  </diagram>
</mxfile>
